<?xml version="1.0" encoding="UTF-8" standalone="no"?>
<!-- Created with Inkscape (http://www.inkscape.org/) -->

<svg
   width="210mm"
   height="297mm"
   viewBox="0 0 210 297"
   version="1.1"
   id="svg1"
   xml:space="preserve"
   inkscape:version="1.3 (0e150ed6c4, 2023-07-21)"
   sodipodi:docname="Bouche.svg"
   xmlns:inkscape="http://www.inkscape.org/namespaces/inkscape"
   xmlns:sodipodi="http://sodipodi.sourceforge.net/DTD/sodipodi-0.dtd"
   xmlns="http://www.w3.org/2000/svg"
   xmlns:svg="http://www.w3.org/2000/svg"><sodipodi:namedview
     id="namedview1"
     pagecolor="#ffffff"
     bordercolor="#666666"
     borderopacity="1.0"
     inkscape:showpageshadow="2"
     inkscape:pageopacity="0.0"
     inkscape:pagecheckerboard="0"
     inkscape:deskcolor="#d1d1d1"
     inkscape:document-units="mm"
     inkscape:zoom="4.0860164"
     inkscape:cx="585.65599"
     inkscape:cy="607.31523"
     inkscape:window-width="1920"
     inkscape:window-height="991"
     inkscape:window-x="-9"
     inkscape:window-y="-9"
     inkscape:window-maximized="1"
     inkscape:current-layer="layer1" /><defs
     id="defs1"><marker
       id="DistanceX"
       orient="auto"
       refX="0.0"
       refY="0.0"
       style="overflow:visible"><path
         d="M 3,-3 L -3,3 M 0,-5 L  0,5"
         style="stroke:#000000; stroke-width:0.5"
         id="path1" /></marker><pattern
       id="Hatch"
       patternUnits="userSpaceOnUse"
       width="8"
       height="8"
       x="0"
       y="0"><path
         d="M8 4 l-4,4"
         stroke="#000000"
         stroke-width="0.25"
         linecap="square"
         id="path2" /><path
         d="M6 2 l-4,4"
         stroke="#000000"
         stroke-width="0.25"
         linecap="square"
         id="path3" /><path
         d="M4 0 l-4,4"
         stroke="#000000"
         stroke-width="0.25"
         linecap="square"
         id="path4" /></pattern><symbol
       id="*MODEL_SPACE" /><symbol
       id="*PAPER_SPACE" /><marker
       id="DistanceX-6"
       orient="auto"
       refX="0.0"
       refY="0.0"
       style="overflow:visible"><path
         d="M 3,-3 L -3,3 M 0,-5 L  0,5"
         style="stroke:#000000; stroke-width:0.5"
         id="path1-6" /></marker><pattern
       id="Hatch-3"
       patternUnits="userSpaceOnUse"
       width="8"
       height="8"
       x="0"
       y="0"><path
         d="M8 4 l-4,4"
         stroke="#000000"
         stroke-width="0.25"
         linecap="square"
         id="path2-9" /><path
         d="M6 2 l-4,4"
         stroke="#000000"
         stroke-width="0.25"
         linecap="square"
         id="path3-5" /><path
         d="M4 0 l-4,4"
         stroke="#000000"
         stroke-width="0.25"
         linecap="square"
         id="path4-5" /></pattern><symbol
       id="*MODEL_SPACE-2" /><symbol
       id="*PAPER_SPACE-5" /><marker
       id="DistanceX-4"
       orient="auto"
       refX="0.0"
       refY="0.0"
       style="overflow:visible"><path
         d="M 3,-3 L -3,3 M 0,-5 L  0,5"
         style="stroke:#000000; stroke-width:0.5"
         id="path1-9" /></marker><pattern
       id="Hatch-9"
       patternUnits="userSpaceOnUse"
       width="8"
       height="8"
       x="0"
       y="0"><path
         d="M8 4 l-4,4"
         stroke="#000000"
         stroke-width="0.25"
         linecap="square"
         id="path2-2" /><path
         d="M6 2 l-4,4"
         stroke="#000000"
         stroke-width="0.25"
         linecap="square"
         id="path3-7" /><path
         d="M4 0 l-4,4"
         stroke="#000000"
         stroke-width="0.25"
         linecap="square"
         id="path4-1" /></pattern><symbol
       id="*MODEL_SPACE-8" /><symbol
       id="*PAPER_SPACE-8" /></defs><g
     inkscape:label="Layer 1"
     inkscape:groupmode="layer"
     id="layer1"><g
       inkscape:label="0"
       id="g11"
       transform="matrix(0.26458333,0,0,0.26458333,109.95481,-5.8866192)"
       style="stroke-width:1.00000001;stroke-dasharray:none;vector-effect:non-scaling-stroke;-inkscape-stroke:hairline;stroke:#ff0000;stroke-opacity:1"><path
         d="m 132.28346,668.97638 h 75.59056 l 37.79527,-94.48819 H 94.488189 Z"
         style="fill:none;stroke:#ff0000;stroke-width:1.00000001;stroke-dasharray:none;vector-effect:non-scaling-stroke;-inkscape-stroke:hairline;stroke-opacity:1"
         id="path5" /><path
         d="m 145.70079,650.07874 a 5.85827,5.85827 0 0 0 -11.71654,0 5.85827,5.85827 0 0 0 11.71654,0 z"
         style="fill:none;stroke:#ff0000;stroke-width:1.00000001;stroke-dasharray:none;vector-effect:non-scaling-stroke;-inkscape-stroke:hairline;stroke-opacity:1"
         id="path6" /><path
         d="m 206.17323,650.07874 a 5.85827,5.85827 0 0 0 -11.71654,0 5.85827,5.85827 0 0 0 11.71654,0 z"
         style="fill:none;stroke:#ff0000;stroke-width:1.00000001;stroke-dasharray:none;vector-effect:non-scaling-stroke;-inkscape-stroke:hairline;stroke-opacity:1"
         id="path7" /><path
         d="m 122.83465,608.50394 h 94.48818 z"
         style="fill:none;stroke:#ff0000;stroke-width:1.00000001;stroke-dasharray:none;vector-effect:non-scaling-stroke;-inkscape-stroke:hairline;stroke-opacity:1"
         id="path8" /><path
         d="m 122.83465,608.50394 a 49.133858,49.133858 0 0 0 94.48818,0"
         style="fill:none;stroke:#ff0000;stroke-width:1.00000001;stroke-dasharray:none;vector-effect:non-scaling-stroke;-inkscape-stroke:hairline;stroke-opacity:1"
         id="path9" /><path
         d="m 206.17323,585.82677 a 5.85827,5.85827 0 0 0 -11.71654,0 5.85827,5.85827 0 0 0 11.71654,0 z"
         style="fill:none;stroke:#ff0000;stroke-width:1.00000001;stroke-dasharray:none;vector-effect:non-scaling-stroke;-inkscape-stroke:hairline;stroke-opacity:1"
         id="path10" /><path
         d="m 145.70079,585.82677 a 5.85827,5.85827 0 0 0 -11.71654,0 5.85827,5.85827 0 0 0 11.71654,0 z"
         style="fill:none;stroke:#ff0000;stroke-width:1.00000001;stroke-dasharray:none;vector-effect:non-scaling-stroke;-inkscape-stroke:hairline;stroke-opacity:1"
         id="path11" /></g></g></svg>
