<?xml version="1.0" encoding="UTF-8" standalone="no"?>
<!-- Created with Inkscape (http://www.inkscape.org/) -->

<svg
   width="210mm"
   height="297mm"
   viewBox="0 0 210 297"
   version="1.1"
   id="svg1"
   xml:space="preserve"
   inkscape:version="1.3 (0e150ed6c4, 2023-07-21)"
   sodipodi:docname="Veste.svg"
   xmlns:inkscape="http://www.inkscape.org/namespaces/inkscape"
   xmlns:sodipodi="http://sodipodi.sourceforge.net/DTD/sodipodi-0.dtd"
   xmlns="http://www.w3.org/2000/svg"
   xmlns:svg="http://www.w3.org/2000/svg"><sodipodi:namedview
     id="namedview1"
     pagecolor="#ffffff"
     bordercolor="#666666"
     borderopacity="1.0"
     inkscape:showpageshadow="2"
     inkscape:pageopacity="0.0"
     inkscape:pagecheckerboard="0"
     inkscape:deskcolor="#d1d1d1"
     inkscape:document-units="mm"
     inkscape:zoom="0.69219276"
     inkscape:cx="397.28818"
     inkscape:cy="561.25984"
     inkscape:window-width="1920"
     inkscape:window-height="991"
     inkscape:window-x="-9"
     inkscape:window-y="-9"
     inkscape:window-maximized="1"
     inkscape:current-layer="layer1" /><defs
     id="defs1"><marker
       id="DistanceX"
       orient="auto"
       refX="0.0"
       refY="0.0"
       style="overflow:visible"><path
         d="M 3,-3 L -3,3 M 0,-5 L  0,5"
         style="stroke:#000000; stroke-width:0.5"
         id="path1" /></marker><pattern
       id="Hatch"
       patternUnits="userSpaceOnUse"
       width="8"
       height="8"
       x="0"
       y="0"><path
         d="M8 4 l-4,4"
         stroke="#000000"
         stroke-width="0.25"
         linecap="square"
         id="path2" /><path
         d="M6 2 l-4,4"
         stroke="#000000"
         stroke-width="0.25"
         linecap="square"
         id="path3" /><path
         d="M4 0 l-4,4"
         stroke="#000000"
         stroke-width="0.25"
         linecap="square"
         id="path4" /></pattern><symbol
       id="*MODEL_SPACE" /><symbol
       id="*PAPER_SPACE" /></defs><g
     inkscape:label="Layer 1"
     inkscape:groupmode="layer"
     id="layer1"><g
       inkscape:label="0"
       id="g14"
       transform="matrix(0.26458333,0,0,0.26458333,60.115831,-98.499999)"
       style="stroke-width:1.00000001;stroke-dasharray:none;vector-effect:non-scaling-stroke;-inkscape-stroke:hairline;stroke:#ff0000;stroke-opacity:1"><path
         d="M 0,1122.5197 H 340.15748 V 744.56693 H 0 Z"
         style="fill:none;stroke:#ff0000;stroke-width:1.00000001;stroke-dasharray:none;vector-effect:non-scaling-stroke;-inkscape-stroke:hairline;stroke-opacity:1"
         id="path5" /><path
         d="m 85.228346,1103.622 a 5.858268,5.858268 0 0 0 -11.716535,0 5.858268,5.858268 0 0 0 11.716535,0 z"
         style="fill:none;stroke:#ff0000;stroke-width:1.00000001;stroke-dasharray:none;vector-effect:non-scaling-stroke;-inkscape-stroke:hairline;stroke-opacity:1"
         id="path6" /><path
         d="m 266.64567,1103.622 a 5.85827,5.85827 0 0 0 -11.71654,0 5.85827,5.85827 0 0 0 11.71654,0 z"
         style="fill:none;stroke:#ff0000;stroke-width:1.00000001;stroke-dasharray:none;vector-effect:non-scaling-stroke;-inkscape-stroke:hairline;stroke-opacity:1"
         id="path7" /><path
         d="m 94.488189,744.56693 a 94.488189,94.488189 0 0 0 151.181101,0"
         style="fill:none;stroke:#ff0000;stroke-width:1.00000001;stroke-dasharray:none;vector-effect:non-scaling-stroke;-inkscape-stroke:hairline;stroke-opacity:1"
         id="path8" /><path
         d="M 340.15748,782.36221 A 137.00787,137.00787 0 0 0 245.66929,744.56693"
         style="fill:none;stroke:#ff0000;stroke-width:1.00000001;stroke-dasharray:none;vector-effect:non-scaling-stroke;-inkscape-stroke:hairline;stroke-opacity:1"
         id="path9" /><path
         d="m 340.15748,782.36221 a 94.488189,94.488189 0 0 0 0,113.38582"
         style="fill:none;stroke:#ff0000;stroke-width:1.00000001;stroke-dasharray:none;vector-effect:non-scaling-stroke;-inkscape-stroke:hairline;stroke-opacity:1"
         id="path10" /><path
         d="M 94.488189,744.56693 A 137.00787,137.00787 0 0 0 0,782.36221"
         style="fill:none;stroke:#ff0000;stroke-width:1.00000001;stroke-dasharray:none;vector-effect:non-scaling-stroke;-inkscape-stroke:hairline;stroke-opacity:1"
         id="path11" /><path
         d="M 0,895.74803 A 94.488189,94.488189 0 0 0 0,782.36221"
         style="fill:none;stroke:#ff0000;stroke-width:1.00000001;stroke-dasharray:none;vector-effect:non-scaling-stroke;-inkscape-stroke:hairline;stroke-opacity:1"
         id="path12" /><path
         d="m 145.70079,801.25984 a 5.85827,5.85827 0 0 0 -11.71654,0 5.85827,5.85827 0 0 0 11.71654,0 z"
         style="fill:none;stroke:#ff0000;stroke-width:1.00000001;stroke-dasharray:none;vector-effect:non-scaling-stroke;-inkscape-stroke:hairline;stroke-opacity:1"
         id="path13" /><path
         d="m 206.17323,801.25984 a 5.85827,5.85827 0 0 0 -11.71654,0 5.85827,5.85827 0 0 0 11.71654,0 z"
         style="fill:none;stroke:#ff0000;stroke-width:1.00000001;stroke-dasharray:none;vector-effect:non-scaling-stroke;-inkscape-stroke:hairline;stroke-opacity:1"
         id="path14" /></g></g></svg>
