<?xml version="1.0" encoding="UTF-8" standalone="no"?>
<svg
   viewBox="0 0 793.7007874015749 1122.5196850393702"
   width="793.7007874015749"
   height="1122.5196850393702"
   version="1.1"
   id="svg76"
   sodipodi:docname="Cote.svg"
   inkscape:version="1.3 (0e150ed6c4, 2023-07-21)"
   xmlns:inkscape="http://www.inkscape.org/namespaces/inkscape"
   xmlns:sodipodi="http://sodipodi.sourceforge.net/DTD/sodipodi-0.dtd"
   xmlns="http://www.w3.org/2000/svg"
   xmlns:svg="http://www.w3.org/2000/svg">
  <sodipodi:namedview
     id="namedview76"
     pagecolor="#ffffff"
     bordercolor="#999999"
     borderopacity="1"
     inkscape:showpageshadow="2"
     inkscape:pageopacity="0"
     inkscape:pagecheckerboard="0"
     inkscape:deskcolor="#d1d1d1"
     inkscape:zoom="0.68328425"
     inkscape:cx="460.27696"
     inkscape:cy="-21.221036"
     inkscape:window-width="1680"
     inkscape:window-height="987"
     inkscape:window-x="-8"
     inkscape:window-y="-8"
     inkscape:window-maximized="1"
     inkscape:current-layer="g76" />
  <desc
     id="desc1">Cote.dxf - scale = 1.000000, origin = (1.000000, 1.000000), method = manual</desc>
  <defs
     id="defs4">
    <marker
       id="DistanceX"
       orient="auto"
       refX="0.0"
       refY="0.0"
       style="overflow:visible">
      <path
         d="M 3,-3 L -3,3 M 0,-5 L  0,5"
         style="stroke:#000000; stroke-width:0.5"
         id="path1" />
    </marker>
    <pattern
       id="Hatch"
       patternUnits="userSpaceOnUse"
       width="8"
       height="8"
       x="0"
       y="0">
      <path
         d="M8 4 l-4,4"
         stroke="#000000"
         stroke-width="0.25"
         linecap="square"
         id="path2" />
      <path
         d="M6 2 l-4,4"
         stroke="#000000"
         stroke-width="0.25"
         linecap="square"
         id="path3" />
      <path
         d="M4 0 l-4,4"
         stroke="#000000"
         stroke-width="0.25"
         linecap="square"
         id="path4" />
    </pattern>
    <symbol
       id="*MODEL_SPACE" />
    <symbol
       id="*PAPER_SPACE" />
  </defs>
  <g
     inkscape:groupmode="layer"
     inkscape:label="0"
     id="g76">
    <path
       d="M 773.34946,595.04154 H 17.443952 V 28.112407 H 773.34946 Z"
       style="fill:none;stroke:#ff0000;vector-effect:non-scaling-stroke;-inkscape-stroke:hairline;stroke-width:1;stroke-dasharray:none;stroke-opacity:1"
       id="path5" />
    <path
       d="m 640.68805,573.68721 a 5.858268,5.858268 0 0 0 -11.71654,0 5.858268,5.858268 0 0 0 11.71654,0 z"
       style="fill:none;stroke:#ff0000;vector-effect:non-scaling-stroke;-inkscape-stroke:hairline;stroke-width:1;stroke-dasharray:none;stroke-opacity:1"
       id="path6" />
    <path
       d="m 757.8534,456.52186 a 5.858268,5.858268 0 0 0 -11.71654,0 5.858268,5.858268 0 0 0 11.71654,0 z"
       style="fill:none;stroke:#ff0000;vector-effect:non-scaling-stroke;-inkscape-stroke:hairline;stroke-width:1;stroke-dasharray:none;stroke-opacity:1"
       id="path7" />
    <path
       d="m 757.8534,573.68721 a 5.858268,5.858268 0 0 0 -11.71654,0 5.858268,5.858268 0 0 0 11.71654,0 z"
       style="fill:none;stroke:#ff0000;vector-effect:non-scaling-stroke;-inkscape-stroke:hairline;stroke-width:1;stroke-dasharray:none;stroke-opacity:1"
       id="path8" />
    <path
       style="fill:none;stroke:#ff0000;vector-effect:non-scaling-stroke;-inkscape-stroke:hairline;stroke-width:1;stroke-dasharray:none;stroke-opacity:1"
       d="m 773.34946,595.04233 v -159.875"
       id="path9" />
    <path
       d="m 640.68805,456.52186 a 5.858268,5.858268 0 0 0 -11.71654,0 5.858268,5.858268 0 0 0 11.71654,0 z"
       style="fill:none;stroke:#ff0000;vector-effect:non-scaling-stroke;-inkscape-stroke:hairline;stroke-width:1;stroke-dasharray:none;stroke-opacity:1"
       id="path10" />
    <path
       d="m 736.87702,515.10453 a 43.464567,43.464567 0 0 0 -86.92913,0 43.464567,43.464567 0 0 0 86.92913,0 z"
       style="fill:none;stroke:#ff0000;vector-effect:non-scaling-stroke;-inkscape-stroke:hairline;stroke-width:1;stroke-dasharray:none;stroke-opacity:1"
       id="path11" />
    <path
       d="m 722.51482,84.80532 a 5.858268,5.858268 0 0 0 -11.71654,0 5.858268,5.858268 0 0 0 11.71654,0 z"
       style="fill:none;stroke:#ff0000;vector-effect:non-scaling-stroke;-inkscape-stroke:hairline;stroke-width:1;stroke-dasharray:none;stroke-opacity:1"
       id="path12" />
    <path
       d="m 684.71954,84.80532 a 5.858268,5.858268 0 0 0 -11.71653,0 5.858268,5.858268 0 0 0 11.71653,0 z"
       style="fill:none;stroke:#ff0000;vector-effect:non-scaling-stroke;-inkscape-stroke:hairline;stroke-width:1;stroke-dasharray:none;stroke-opacity:1"
       id="path13" />
    <path
       d="m 646.92427,84.80532 a 5.858268,5.858268 0 0 0 -11.71654,0 5.858268,5.858268 0 0 0 11.71654,0 z"
       style="fill:none;stroke:#ff0000;vector-effect:non-scaling-stroke;-inkscape-stroke:hairline;stroke-width:1;stroke-dasharray:none;stroke-opacity:1"
       id="path14" />
    <path
       d="m 609.12899,84.80532 a 5.858268,5.858268 0 0 0 -11.71653,0 5.858268,5.858268 0 0 0 11.71653,0 z"
       style="fill:none;stroke:#ff0000;vector-effect:non-scaling-stroke;-inkscape-stroke:hairline;stroke-width:1;stroke-dasharray:none;stroke-opacity:1"
       id="path15" />
    <path
       d="m 571.33371,84.80532 a 5.858268,5.858268 0 0 0 -11.71653,0 5.858268,5.858268 0 0 0 11.71653,0 z"
       style="fill:none;stroke:#ff0000;vector-effect:non-scaling-stroke;-inkscape-stroke:hairline;stroke-width:1;stroke-dasharray:none;stroke-opacity:1"
       id="path16" />
    <path
       d="m 533.53844,84.80532 a 5.858268,5.858268 0 0 0 -11.71654,0 5.858268,5.858268 0 0 0 11.71654,0 z"
       style="fill:none;stroke:#ff0000;vector-effect:non-scaling-stroke;-inkscape-stroke:hairline;stroke-width:1;stroke-dasharray:none;stroke-opacity:1"
       id="path17" />
    <path
       d="m 495.74316,84.80532 a 5.858268,5.858268 0 0 0 -11.71653,0 5.858268,5.858268 0 0 0 11.71653,0 z"
       style="fill:none;stroke:#ff0000;vector-effect:non-scaling-stroke;-inkscape-stroke:hairline;stroke-width:1;stroke-dasharray:none;stroke-opacity:1"
       id="path18" />
    <path
       d="m 457.94789,84.80532 a 5.858268,5.858268 0 0 0 -11.71654,0 5.858268,5.858268 0 0 0 11.71654,0 z"
       style="fill:none;stroke:#ff0000;vector-effect:non-scaling-stroke;-inkscape-stroke:hairline;stroke-width:1;stroke-dasharray:none;stroke-opacity:1"
       id="path19" />
    <path
       d="m 420.15261,84.80532 a 5.858268,5.858268 0 0 0 -11.71653,0 5.858268,5.858268 0 0 0 11.71653,0 z"
       style="fill:none;stroke:#ff0000;vector-effect:non-scaling-stroke;-inkscape-stroke:hairline;stroke-width:1;stroke-dasharray:none;stroke-opacity:1"
       id="path20" />
    <path
       d="m 382.35734,84.80532 a 5.858268,5.858268 0 0 0 -11.71654,0 5.858268,5.858268 0 0 0 11.71654,0 z"
       style="fill:none;stroke:#ff0000;vector-effect:non-scaling-stroke;-inkscape-stroke:hairline;stroke-width:1;stroke-dasharray:none;stroke-opacity:1"
       id="path21" />
    <path
       d="m 344.56206,84.80532 a 5.858268,5.858268 0 0 0 -11.71653,0 5.858268,5.858268 0 0 0 11.71653,0 z"
       style="fill:none;stroke:#ff0000;vector-effect:non-scaling-stroke;-inkscape-stroke:hairline;stroke-width:1;stroke-dasharray:none;stroke-opacity:1"
       id="path22" />
    <path
       d="m 306.76679,84.80532 a 5.858268,5.858268 0 0 0 -11.71654,0 5.858268,5.858268 0 0 0 11.71654,0 z"
       style="fill:none;stroke:#ff0000;vector-effect:non-scaling-stroke;-inkscape-stroke:hairline;stroke-width:1;stroke-dasharray:none;stroke-opacity:1"
       id="path23" />
    <path
       d="m 268.97151,84.80532 a 5.858268,5.858268 0 0 0 -11.71654,0 5.858268,5.858268 0 0 0 11.71654,0 z"
       style="fill:none;stroke:#ff0000;vector-effect:non-scaling-stroke;-inkscape-stroke:hairline;stroke-width:1;stroke-dasharray:none;stroke-opacity:1"
       id="path24" />
    <path
       d="m 231.17623,84.80532 a 5.858268,5.858268 0 0 0 -11.71653,0 5.858268,5.858268 0 0 0 11.71653,0 z"
       style="fill:none;stroke:#ff0000;vector-effect:non-scaling-stroke;-inkscape-stroke:hairline;stroke-width:1;stroke-dasharray:none;stroke-opacity:1"
       id="path25" />
    <path
       d="m 193.38096,84.80532 a 5.858268,5.858268 0 0 0 -11.71654,0 5.858268,5.858268 0 0 0 11.71654,0 z"
       style="fill:none;stroke:#ff0000;vector-effect:non-scaling-stroke;-inkscape-stroke:hairline;stroke-width:1;stroke-dasharray:none;stroke-opacity:1"
       id="path26" />
    <path
       d="m 155.58568,84.80532 a 5.858268,5.858268 0 0 0 -11.71653,0 5.858268,5.858268 0 0 0 11.71653,0 z"
       style="fill:none;stroke:#ff0000;vector-effect:non-scaling-stroke;-inkscape-stroke:hairline;stroke-width:1;stroke-dasharray:none;stroke-opacity:1"
       id="path27" />
    <path
       d="m 117.79041,84.80532 a 5.858268,5.858268 0 0 0 -11.71654,0 5.858268,5.858268 0 0 0 11.71654,0 z"
       style="fill:none;stroke:#ff0000;vector-effect:non-scaling-stroke;-inkscape-stroke:hairline;stroke-width:1;stroke-dasharray:none;stroke-opacity:1"
       id="path28" />
    <path
       d="m 722.51482,122.6006 a 5.858268,5.858268 0 0 0 -11.71654,0 5.858268,5.858268 0 0 0 11.71654,0 z"
       style="fill:none;stroke:#ff0000;vector-effect:non-scaling-stroke;-inkscape-stroke:hairline;stroke-width:1;stroke-dasharray:none;stroke-opacity:1"
       id="path29" />
    <path
       d="m 722.51482,160.39587 a 5.858268,5.858268 0 0 0 -11.71654,0 5.858268,5.858268 0 0 0 11.71654,0 z"
       style="fill:none;stroke:#ff0000;vector-effect:non-scaling-stroke;-inkscape-stroke:hairline;stroke-width:1;stroke-dasharray:none;stroke-opacity:1"
       id="path30" />
    <path
       d="m 722.51482,198.19115 a 5.858268,5.858268 0 0 0 -11.71654,0 5.858268,5.858268 0 0 0 11.71654,0 z"
       style="fill:none;stroke:#ff0000;vector-effect:non-scaling-stroke;-inkscape-stroke:hairline;stroke-width:1;stroke-dasharray:none;stroke-opacity:1"
       id="path31" />
    <path
       d="m 722.51482,235.98642 a 5.858268,5.858268 0 0 0 -11.71654,0 5.858268,5.858268 0 0 0 11.71654,0 z"
       style="fill:none;stroke:#ff0000;vector-effect:non-scaling-stroke;-inkscape-stroke:hairline;stroke-width:1;stroke-dasharray:none;stroke-opacity:1"
       id="path32" />
    <path
       d="m 722.51482,273.7817 a 5.858268,5.858268 0 0 0 -11.71654,0 5.858268,5.858268 0 0 0 11.71654,0 z"
       style="fill:none;stroke:#ff0000;vector-effect:non-scaling-stroke;-inkscape-stroke:hairline;stroke-width:1;stroke-dasharray:none;stroke-opacity:1"
       id="path33" />
    <path
       d="m 722.51482,311.57697 a 5.858268,5.858268 0 0 0 -11.71654,0 5.858268,5.858268 0 0 0 11.71654,0 z"
       style="fill:none;stroke:#ff0000;vector-effect:non-scaling-stroke;-inkscape-stroke:hairline;stroke-width:1;stroke-dasharray:none;stroke-opacity:1"
       id="path34" />
    <path
       d="m 722.51482,349.37225 a 5.858268,5.858268 0 0 0 -11.71654,0 5.858268,5.858268 0 0 0 11.71654,0 z"
       style="fill:none;stroke:#ff0000;vector-effect:non-scaling-stroke;-inkscape-stroke:hairline;stroke-width:1;stroke-dasharray:none;stroke-opacity:1"
       id="path35" />
    <path
       d="m 722.51482,387.16753 a 5.858268,5.858268 0 0 0 -11.71654,0 5.858268,5.858268 0 0 0 11.71654,0 z"
       style="fill:none;stroke:#ff0000;vector-effect:non-scaling-stroke;-inkscape-stroke:hairline;stroke-width:1;stroke-dasharray:none;stroke-opacity:1"
       id="path36" />
    <path
       d="m 559.99513,122.6006 a 5.858268,5.858268 0 0 0 -11.71653,0 5.858268,5.858268 0 0 0 11.71653,0 z"
       style="fill:none;stroke:#ff0000;vector-effect:non-scaling-stroke;-inkscape-stroke:hairline;stroke-width:1;stroke-dasharray:none;stroke-opacity:1"
       id="path37" />
    <path
       d="m 559.99513,185.59272 a 5.858268,5.858268 0 0 0 -11.71653,0 5.858268,5.858268 0 0 0 11.71653,0 z"
       style="fill:none;stroke:#ff0000;vector-effect:non-scaling-stroke;-inkscape-stroke:hairline;stroke-width:1;stroke-dasharray:none;stroke-opacity:1"
       id="path38" />
    <path
       d="m 559.99513,248.58485 a 5.858268,5.858268 0 0 0 -11.71653,0 5.858268,5.858268 0 0 0 11.71653,0 z"
       style="fill:none;stroke:#ff0000;vector-effect:non-scaling-stroke;-inkscape-stroke:hairline;stroke-width:1;stroke-dasharray:none;stroke-opacity:1"
       id="path39" />
    <path
       d="m 559.99513,311.57697 a 5.858268,5.858268 0 0 0 -11.71653,0 5.858268,5.858268 0 0 0 11.71653,0 z"
       style="fill:none;stroke:#ff0000;vector-effect:non-scaling-stroke;-inkscape-stroke:hairline;stroke-width:1;stroke-dasharray:none;stroke-opacity:1"
       id="path40" />
    <path
       d="m 559.99513,374.5691 a 5.858268,5.858268 0 0 0 -11.71653,0 5.858268,5.858268 0 0 0 11.71653,0 z"
       style="fill:none;stroke:#ff0000;vector-effect:non-scaling-stroke;-inkscape-stroke:hairline;stroke-width:1;stroke-dasharray:none;stroke-opacity:1"
       id="path41" />
    <path
       d="m 559.99513,437.56123 a 5.858268,5.858268 0 0 0 -11.71653,0 5.858268,5.858268 0 0 0 11.71653,0 z"
       style="fill:none;stroke:#ff0000;vector-effect:non-scaling-stroke;-inkscape-stroke:hairline;stroke-width:1;stroke-dasharray:none;stroke-opacity:1"
       id="path42" />
    <path
       d="m 559.99513,500.55335 a 5.858268,5.858268 0 0 0 -11.71653,0 5.858268,5.858268 0 0 0 11.71653,0 z"
       style="fill:none;stroke:#ff0000;vector-effect:non-scaling-stroke;-inkscape-stroke:hairline;stroke-width:1;stroke-dasharray:none;stroke-opacity:1"
       id="path43" />
    <path
       d="m 194.13686,141.49823 a 5.858268,5.858268 0 0 0 -11.71653,0 5.858268,5.858268 0 0 0 11.71653,0 z"
       style="fill:none;stroke:#ff0000;vector-effect:non-scaling-stroke;-inkscape-stroke:hairline;stroke-width:1;stroke-dasharray:none;stroke-opacity:1"
       id="path44" />
    <path
       d="m 299.58568,141.49823 a 5.858268,5.858268 0 0 0 -11.71653,0 5.858268,5.858268 0 0 0 11.71653,0 z"
       style="fill:none;stroke:#ff0000;vector-effect:non-scaling-stroke;-inkscape-stroke:hairline;stroke-width:1;stroke-dasharray:none;stroke-opacity:1"
       id="path45" />
    <path
       d="m 318.86127,338.41162 a 5.858268,5.858268 0 0 0 -11.71653,0 5.858268,5.858268 0 0 0 11.71653,0 z"
       style="fill:none;stroke:#ff0000;vector-effect:non-scaling-stroke;-inkscape-stroke:hairline;stroke-width:1;stroke-dasharray:none;stroke-opacity:1"
       id="path46" />
    <path
       d="M 168.62505,481.65571 H 508.78253 V 179.29351 H 168.62505 Z"
       style="fill:none;stroke:#ff0000;vector-effect:non-scaling-stroke;-inkscape-stroke:hairline;stroke-width:1;stroke-dasharray:none;stroke-opacity:1"
       id="path47" />
    <path
       d="m 79.995133,84.80532 a 5.858268,5.858268 0 0 0 -11.716536,0 5.858268,5.858268 0 0 0 11.716536,0 z"
       style="fill:none;stroke:#ff0000;vector-effect:non-scaling-stroke;-inkscape-stroke:hairline;stroke-width:1;stroke-dasharray:none;stroke-opacity:1"
       id="path48" />
    <path
       d="m 79.995133,122.6006 a 5.858268,5.858268 0 0 0 -11.716536,0 5.858268,5.858268 0 0 0 11.716536,0 z"
       style="fill:none;stroke:#ff0000;vector-effect:non-scaling-stroke;-inkscape-stroke:hairline;stroke-width:1;stroke-dasharray:none;stroke-opacity:1"
       id="path49" />
    <path
       d="m 79.995133,160.39587 a 5.858268,5.858268 0 0 0 -11.716536,0 5.858268,5.858268 0 0 0 11.716536,0 z"
       style="fill:none;stroke:#ff0000;vector-effect:non-scaling-stroke;-inkscape-stroke:hairline;stroke-width:1;stroke-dasharray:none;stroke-opacity:1"
       id="path50" />
    <path
       d="m 79.995133,198.19115 a 5.858268,5.858268 0 0 0 -11.716536,0 5.858268,5.858268 0 0 0 11.716536,0 z"
       style="fill:none;stroke:#ff0000;vector-effect:non-scaling-stroke;-inkscape-stroke:hairline;stroke-width:1;stroke-dasharray:none;stroke-opacity:1"
       id="path51" />
    <path
       d="m 79.995133,235.98642 a 5.858268,5.858268 0 0 0 -11.716536,0 5.858268,5.858268 0 0 0 11.716536,0 z"
       style="fill:none;stroke:#ff0000;vector-effect:non-scaling-stroke;-inkscape-stroke:hairline;stroke-width:1;stroke-dasharray:none;stroke-opacity:1"
       id="path52" />
    <path
       d="m 79.995133,273.7817 a 5.858268,5.858268 0 0 0 -11.716536,0 5.858268,5.858268 0 0 0 11.716536,0 z"
       style="fill:none;stroke:#ff0000;vector-effect:non-scaling-stroke;-inkscape-stroke:hairline;stroke-width:1;stroke-dasharray:none;stroke-opacity:1"
       id="path53" />
    <path
       d="m 79.995133,311.57697 a 5.858268,5.858268 0 0 0 -11.716536,0 5.858268,5.858268 0 0 0 11.716536,0 z"
       style="fill:none;stroke:#ff0000;vector-effect:non-scaling-stroke;-inkscape-stroke:hairline;stroke-width:1;stroke-dasharray:none;stroke-opacity:1"
       id="path54" />
    <path
       d="m 79.995133,349.37225 a 5.858268,5.858268 0 0 0 -11.716536,0 5.858268,5.858268 0 0 0 11.716536,0 z"
       style="fill:none;stroke:#ff0000;vector-effect:non-scaling-stroke;-inkscape-stroke:hairline;stroke-width:1;stroke-dasharray:none;stroke-opacity:1"
       id="path55" />
    <path
       d="m 79.995133,387.16753 a 5.858268,5.858268 0 0 0 -11.716536,0 5.858268,5.858268 0 0 0 11.716536,0 z"
       style="fill:none;stroke:#ff0000;vector-effect:non-scaling-stroke;-inkscape-stroke:hairline;stroke-width:1;stroke-dasharray:none;stroke-opacity:1"
       id="path56" />
    <path
       d="m 79.995133,424.9628 a 5.858268,5.858268 0 0 0 -11.716536,0 5.858268,5.858268 0 0 0 11.716536,0 z"
       style="fill:none;stroke:#ff0000;vector-effect:non-scaling-stroke;-inkscape-stroke:hairline;stroke-width:1;stroke-dasharray:none;stroke-opacity:1"
       id="path57" />
    <path
       d="m 79.995133,462.75808 a 5.858268,5.858268 0 0 0 -11.716536,0 5.858268,5.858268 0 0 0 11.716536,0 z"
       style="fill:none;stroke:#ff0000;vector-effect:non-scaling-stroke;-inkscape-stroke:hairline;stroke-width:1;stroke-dasharray:none;stroke-opacity:1"
       id="path58" />
    <path
       d="m 79.995133,500.55335 a 5.858268,5.858268 0 0 0 -11.716536,0 5.858268,5.858268 0 0 0 11.716536,0 z"
       style="fill:none;stroke:#ff0000;vector-effect:non-scaling-stroke;-inkscape-stroke:hairline;stroke-width:1;stroke-dasharray:none;stroke-opacity:1"
       id="path59" />
    <path
       d="m 609.12899,538.34863 a 5.858268,5.858268 0 0 0 -11.71653,0 5.858268,5.858268 0 0 0 11.71653,0 z"
       style="fill:none;stroke:#ff0000;vector-effect:non-scaling-stroke;-inkscape-stroke:hairline;stroke-width:1;stroke-dasharray:none;stroke-opacity:1"
       id="path60" />
    <path
       d="m 571.33371,538.34863 a 5.858268,5.858268 0 0 0 -11.71653,0 5.858268,5.858268 0 0 0 11.71653,0 z"
       style="fill:none;stroke:#ff0000;vector-effect:non-scaling-stroke;-inkscape-stroke:hairline;stroke-width:1;stroke-dasharray:none;stroke-opacity:1"
       id="path61" />
    <path
       d="m 533.53844,538.34863 a 5.858268,5.858268 0 0 0 -11.71654,0 5.858268,5.858268 0 0 0 11.71654,0 z"
       style="fill:none;stroke:#ff0000;vector-effect:non-scaling-stroke;-inkscape-stroke:hairline;stroke-width:1;stroke-dasharray:none;stroke-opacity:1"
       id="path62" />
    <path
       d="m 495.74316,538.34863 a 5.858268,5.858268 0 0 0 -11.71653,0 5.858268,5.858268 0 0 0 11.71653,0 z"
       style="fill:none;stroke:#ff0000;vector-effect:non-scaling-stroke;-inkscape-stroke:hairline;stroke-width:1;stroke-dasharray:none;stroke-opacity:1"
       id="path63" />
    <path
       d="m 457.94789,538.34863 a 5.858268,5.858268 0 0 0 -11.71654,0 5.858268,5.858268 0 0 0 11.71654,0 z"
       style="fill:none;stroke:#ff0000;vector-effect:non-scaling-stroke;-inkscape-stroke:hairline;stroke-width:1;stroke-dasharray:none;stroke-opacity:1"
       id="path64" />
    <path
       d="m 420.15261,538.34863 a 5.858268,5.858268 0 0 0 -11.71653,0 5.858268,5.858268 0 0 0 11.71653,0 z"
       style="fill:none;stroke:#ff0000;vector-effect:non-scaling-stroke;-inkscape-stroke:hairline;stroke-width:1;stroke-dasharray:none;stroke-opacity:1"
       id="path65" />
    <path
       d="m 382.35734,538.34863 a 5.858268,5.858268 0 0 0 -11.71654,0 5.858268,5.858268 0 0 0 11.71654,0 z"
       style="fill:none;stroke:#ff0000;vector-effect:non-scaling-stroke;-inkscape-stroke:hairline;stroke-width:1;stroke-dasharray:none;stroke-opacity:1"
       id="path66" />
    <path
       d="m 344.56206,538.34863 a 5.858268,5.858268 0 0 0 -11.71653,0 5.858268,5.858268 0 0 0 11.71653,0 z"
       style="fill:none;stroke:#ff0000;vector-effect:non-scaling-stroke;-inkscape-stroke:hairline;stroke-width:1;stroke-dasharray:none;stroke-opacity:1"
       id="path67" />
    <path
       d="m 306.76679,538.34863 a 5.858268,5.858268 0 0 0 -11.71654,0 5.858268,5.858268 0 0 0 11.71654,0 z"
       style="fill:none;stroke:#ff0000;vector-effect:non-scaling-stroke;-inkscape-stroke:hairline;stroke-width:1;stroke-dasharray:none;stroke-opacity:1"
       id="path68" />
    <path
       d="m 268.97151,538.34863 a 5.858268,5.858268 0 0 0 -11.71654,0 5.858268,5.858268 0 0 0 11.71654,0 z"
       style="fill:none;stroke:#ff0000;vector-effect:non-scaling-stroke;-inkscape-stroke:hairline;stroke-width:1;stroke-dasharray:none;stroke-opacity:1"
       id="path69" />
    <path
       d="m 231.17623,538.34863 a 5.858268,5.858268 0 0 0 -11.71653,0 5.858268,5.858268 0 0 0 11.71653,0 z"
       style="fill:none;stroke:#ff0000;vector-effect:non-scaling-stroke;-inkscape-stroke:hairline;stroke-width:1;stroke-dasharray:none;stroke-opacity:1"
       id="path70" />
    <path
       d="m 193.38096,538.34863 a 5.858268,5.858268 0 0 0 -11.71654,0 5.858268,5.858268 0 0 0 11.71654,0 z"
       style="fill:none;stroke:#ff0000;vector-effect:non-scaling-stroke;-inkscape-stroke:hairline;stroke-width:1;stroke-dasharray:none;stroke-opacity:1"
       id="path71" />
    <path
       d="m 155.58568,538.34863 a 5.858268,5.858268 0 0 0 -11.71653,0 5.858268,5.858268 0 0 0 11.71653,0 z"
       style="fill:none;stroke:#ff0000;vector-effect:non-scaling-stroke;-inkscape-stroke:hairline;stroke-width:1;stroke-dasharray:none;stroke-opacity:1"
       id="path72" />
    <path
       d="m 117.79041,538.34863 a 5.858268,5.858268 0 0 0 -11.71654,0 5.858268,5.858268 0 0 0 11.71654,0 z"
       style="fill:none;stroke:#ff0000;vector-effect:non-scaling-stroke;-inkscape-stroke:hairline;stroke-width:1;stroke-dasharray:none;stroke-opacity:1"
       id="path73" />
    <path
       d="m 79.995133,538.34863 a 5.858268,5.858268 0 0 0 -11.716536,0 5.858268,5.858268 0 0 0 11.716536,0 z"
       style="fill:none;stroke:#ff0000;vector-effect:non-scaling-stroke;-inkscape-stroke:hairline;stroke-width:1;stroke-dasharray:none;stroke-opacity:1"
       id="path74" />
    <path
       d="m 136.68805,333.49823 a 5.858268,5.858268 0 0 0 -11.71654,0 5.858268,5.858268 0 0 0 11.71654,0 z"
       style="fill:none;stroke:#ff0000;vector-effect:non-scaling-stroke;-inkscape-stroke:hairline;stroke-width:1;stroke-dasharray:none;stroke-opacity:1"
       id="path75" />
    <path
       style="fill:none;stroke:#ff0000;vector-effect:non-scaling-stroke;-inkscape-stroke:hairline;stroke-width:1;stroke-dasharray:none;stroke-opacity:1"
       d="M 773.34946,28.112328 V 595.04233"
       id="path76" />
  </g>
</svg>
