<?xml version="1.0" encoding="UTF-8" standalone="no"?>
<svg
   viewBox="0 0 793.7007874015749 1122.5196850393702"
   width="793.7007874015749"
   height="1122.5196850393702"
   version="1.1"
   id="svg22"
   sodipodi:docname="Maintien.svg"
   inkscape:version="1.3 (0e150ed6c4, 2023-07-21)"
   xmlns:inkscape="http://www.inkscape.org/namespaces/inkscape"
   xmlns:sodipodi="http://sodipodi.sourceforge.net/DTD/sodipodi-0.dtd"
   xmlns="http://www.w3.org/2000/svg"
   xmlns:svg="http://www.w3.org/2000/svg">
  <sodipodi:namedview
     id="namedview22"
     pagecolor="#ffffff"
     bordercolor="#999999"
     borderopacity="1"
     inkscape:showpageshadow="2"
     inkscape:pageopacity="0"
     inkscape:pagecheckerboard="0"
     inkscape:deskcolor="#d1d1d1"
     inkscape:zoom="0.68328425"
     inkscape:cx="397.34561"
     inkscape:cy="-138.30262"
     inkscape:window-width="1680"
     inkscape:window-height="987"
     inkscape:window-x="-8"
     inkscape:window-y="-8"
     inkscape:window-maximized="1"
     inkscape:current-layer="g22" />
  <desc
     id="desc1">Maintien.dxf - scale = 1.000000, origin = (1.000000, 1.000000), method = manual</desc>
  <defs
     id="defs4">
    <marker
       id="DistanceX"
       orient="auto"
       refX="0.0"
       refY="0.0"
       style="overflow:visible">
      <path
         d="M 3,-3 L -3,3 M 0,-5 L  0,5"
         style="stroke:#000000; stroke-width:0.5"
         id="path1" />
    </marker>
    <pattern
       id="Hatch"
       patternUnits="userSpaceOnUse"
       width="8"
       height="8"
       x="0"
       y="0">
      <path
         d="M8 4 l-4,4"
         stroke="#000000"
         stroke-width="0.25"
         linecap="square"
         id="path2" />
      <path
         d="M6 2 l-4,4"
         stroke="#000000"
         stroke-width="0.25"
         linecap="square"
         id="path3" />
      <path
         d="M4 0 l-4,4"
         stroke="#000000"
         stroke-width="0.25"
         linecap="square"
         id="path4" />
    </pattern>
    <symbol
       id="*MODEL_SPACE" />
    <symbol
       id="*PAPER_SPACE" />
  </defs>
  <g
     inkscape:groupmode="layer"
     inkscape:label="0"
     id="g22">
    <path
       d="M 33.914734,417.03912 V 39.086363 H 279.58403 V 417.03912 H 241.78875 V 76.881638 H 71.710009 V 417.03912 Z"
       style="fill:none;stroke:#ff0000;vector-effect:non-scaling-stroke;-inkscape-stroke:hairline;stroke-width:1;stroke-dasharray:none;stroke-opacity:1"
       id="path5" />
    <path
       style="fill:none;stroke:#000000"
       d="M -3.77953 1126.3 L 563.15 1126.3"
       id="path8" />
    <path
       d="m 58.670639,57.984 a 5.858268,5.858268 0 0 0 -11.716535,0 5.858268,5.858268 0 0 0 11.716535,0 z"
       style="fill:none;stroke:#ff0000;vector-effect:non-scaling-stroke;-inkscape-stroke:hairline;stroke-width:1;stroke-dasharray:none;stroke-opacity:1"
       id="path9" />
    <path
       d="m 110.63914,57.984 a 5.858268,5.858268 0 0 0 -11.716532,0 5.858268,5.858268 0 0 0 11.716532,0 z"
       style="fill:none;stroke:#ff0000;vector-effect:non-scaling-stroke;-inkscape-stroke:hairline;stroke-width:1;stroke-dasharray:none;stroke-opacity:1"
       id="path11" />
    <path
       d="m 162.60765,57.984 a 5.858268,5.858268 0 0 0 -11.71654,0 5.858268,5.858268 0 0 0 11.71654,0 z"
       style="fill:none;stroke:#ff0000;vector-effect:non-scaling-stroke;-inkscape-stroke:hairline;stroke-width:1;stroke-dasharray:none;stroke-opacity:1"
       id="path12" />
    <path
       d="m 214.57615,57.984 a 5.858268,5.858268 0 0 0 -11.71653,0 5.858268,5.858268 0 0 0 11.71653,0 z"
       style="fill:none;stroke:#ff0000;vector-effect:non-scaling-stroke;-inkscape-stroke:hairline;stroke-width:1;stroke-dasharray:none;stroke-opacity:1"
       id="path13" />
    <path
       d="m 266.54466,57.984 a 5.858268,5.858268 0 0 0 -11.71654,0 5.858268,5.858268 0 0 0 11.71654,0 z"
       style="fill:none;stroke:#ff0000;vector-effect:non-scaling-stroke;-inkscape-stroke:hairline;stroke-width:1;stroke-dasharray:none;stroke-opacity:1"
       id="path14" />
    <path
       d="m 58.670639,119.40132 a 5.858268,5.858268 0 0 0 -11.716535,0 5.858268,5.858268 0 0 0 11.716535,0 z"
       style="fill:none;stroke:#ff0000;vector-effect:non-scaling-stroke;-inkscape-stroke:hairline;stroke-width:1;stroke-dasharray:none;stroke-opacity:1"
       id="path15" />
    <path
       d="m 266.54466,119.40132 a 5.858268,5.858268 0 0 0 -11.71654,0 5.858268,5.858268 0 0 0 11.71654,0 z"
       style="fill:none;stroke:#ff0000;vector-effect:non-scaling-stroke;-inkscape-stroke:hairline;stroke-width:1;stroke-dasharray:none;stroke-opacity:1"
       id="path16" />
    <path
       d="m 58.670639,180.81865 a 5.858268,5.858268 0 0 0 -11.716535,0 5.858268,5.858268 0 0 0 11.716535,0 z"
       style="fill:none;stroke:#ff0000;vector-effect:non-scaling-stroke;-inkscape-stroke:hairline;stroke-width:1;stroke-dasharray:none;stroke-opacity:1"
       id="path17" />
    <path
       d="m 266.54466,180.81865 a 5.858268,5.858268 0 0 0 -11.71654,0 5.858268,5.858268 0 0 0 11.71654,0 z"
       style="fill:none;stroke:#ff0000;vector-effect:non-scaling-stroke;-inkscape-stroke:hairline;stroke-width:1;stroke-dasharray:none;stroke-opacity:1"
       id="path18" />
    <path
       d="m 58.670639,242.23597 a 5.858268,5.858268 0 0 0 -11.716535,0 5.858268,5.858268 0 0 0 11.716535,0 z"
       style="fill:none;stroke:#ff0000;vector-effect:non-scaling-stroke;-inkscape-stroke:hairline;stroke-width:1;stroke-dasharray:none;stroke-opacity:1"
       id="path19" />
    <path
       d="m 266.54466,242.23597 a 5.858268,5.858268 0 0 0 -11.71654,0 5.858268,5.858268 0 0 0 11.71654,0 z"
       style="fill:none;stroke:#ff0000;vector-effect:non-scaling-stroke;-inkscape-stroke:hairline;stroke-width:1;stroke-dasharray:none;stroke-opacity:1"
       id="path20" />
    <path
       d="m 58.670639,303.65329 a 5.858268,5.858268 0 0 0 -11.716535,0 5.858268,5.858268 0 0 0 11.716535,0 z"
       style="fill:none;stroke:#ff0000;vector-effect:non-scaling-stroke;-inkscape-stroke:hairline;stroke-width:1;stroke-dasharray:none;stroke-opacity:1"
       id="path21" />
    <path
       d="m 266.54466,303.65329 a 5.858268,5.858268 0 0 0 -11.71654,0 5.858268,5.858268 0 0 0 11.71654,0 z"
       style="fill:none;stroke:#ff0000;vector-effect:non-scaling-stroke;-inkscape-stroke:hairline;stroke-width:1;stroke-dasharray:none;stroke-opacity:1"
       id="path22" />
  </g>
</svg>
